<mxfile host="app.diagrams.net" modified="2021-09-22T00:55:55.102Z" agent="5.0 (Macintosh; Intel Mac OS X 10_15_7) AppleWebKit/537.36 (KHTML, like Gecko) Chrome/93.0.4577.82 Safari/537.36" etag="igbXS22cMc5vUJncMUuQ" version="15.2.9" type="github">
  <diagram id="AB41GfGKprlrtjc0dpUx" name="Page-1">
    <mxGraphModel dx="946" dy="687" grid="1" gridSize="10" guides="1" tooltips="1" connect="1" arrows="1" fold="1" page="1" pageScale="1" pageWidth="827" pageHeight="1169" math="0" shadow="0">
      <root>
        <mxCell id="0" />
        <mxCell id="1" parent="0" />
        <mxCell id="CFfwaV_DFlub3gzBFAvo-5" value="stable" style="rounded=1;whiteSpace=wrap;html=1;" vertex="1" parent="1">
          <mxGeometry x="200" y="620" width="120" height="60" as="geometry" />
        </mxCell>
        <mxCell id="CFfwaV_DFlub3gzBFAvo-6" value="snapshot repo" style="rounded=1;whiteSpace=wrap;html=1;" vertex="1" parent="1">
          <mxGeometry x="680" y="20" width="120" height="60" as="geometry" />
        </mxCell>
        <mxCell id="CFfwaV_DFlub3gzBFAvo-7" value="master" style="rounded=1;whiteSpace=wrap;html=1;" vertex="1" parent="1">
          <mxGeometry x="10" y="620" width="120" height="60" as="geometry" />
        </mxCell>
        <mxCell id="CFfwaV_DFlub3gzBFAvo-10" style="edgeStyle=orthogonalEdgeStyle;rounded=0;orthogonalLoop=1;jettySize=auto;html=1;exitX=1;exitY=0.5;exitDx=0;exitDy=0;entryX=0.5;entryY=0;entryDx=0;entryDy=0;" edge="1" parent="1" source="CFfwaV_DFlub3gzBFAvo-8" target="CFfwaV_DFlub3gzBFAvo-16">
          <mxGeometry relative="1" as="geometry">
            <mxPoint x="430" y="90" as="targetPoint" />
          </mxGeometry>
        </mxCell>
        <mxCell id="CFfwaV_DFlub3gzBFAvo-8" value="dev" style="rounded=1;whiteSpace=wrap;html=1;" vertex="1" parent="1">
          <mxGeometry x="200" y="20" width="120" height="60" as="geometry" />
        </mxCell>
        <mxCell id="CFfwaV_DFlub3gzBFAvo-17" style="edgeStyle=orthogonalEdgeStyle;rounded=0;orthogonalLoop=1;jettySize=auto;html=1;exitX=0.5;exitY=1;exitDx=0;exitDy=0;entryX=1;entryY=0.5;entryDx=0;entryDy=0;" edge="1" parent="1" source="CFfwaV_DFlub3gzBFAvo-16" target="CFfwaV_DFlub3gzBFAvo-5">
          <mxGeometry relative="1" as="geometry" />
        </mxCell>
        <mxCell id="CFfwaV_DFlub3gzBFAvo-16" value="merge to stable" style="swimlane;" vertex="1" parent="1">
          <mxGeometry x="340" y="90" width="250" height="530" as="geometry" />
        </mxCell>
        <mxCell id="CFfwaV_DFlub3gzBFAvo-24" style="edgeStyle=orthogonalEdgeStyle;rounded=0;orthogonalLoop=1;jettySize=auto;html=1;exitX=0.5;exitY=1;exitDx=0;exitDy=0;entryX=0.5;entryY=0;entryDx=0;entryDy=0;" edge="1" parent="CFfwaV_DFlub3gzBFAvo-16" source="CFfwaV_DFlub3gzBFAvo-20" target="CFfwaV_DFlub3gzBFAvo-21">
          <mxGeometry relative="1" as="geometry" />
        </mxCell>
        <mxCell id="CFfwaV_DFlub3gzBFAvo-20" value="开始自动化" style="ellipse;whiteSpace=wrap;html=1;" vertex="1" parent="CFfwaV_DFlub3gzBFAvo-16">
          <mxGeometry x="20" y="30" width="70" height="40" as="geometry" />
        </mxCell>
        <mxCell id="CFfwaV_DFlub3gzBFAvo-27" value="" style="edgeStyle=orthogonalEdgeStyle;rounded=0;orthogonalLoop=1;jettySize=auto;html=1;" edge="1" parent="CFfwaV_DFlub3gzBFAvo-16" source="CFfwaV_DFlub3gzBFAvo-21" target="CFfwaV_DFlub3gzBFAvo-26">
          <mxGeometry relative="1" as="geometry" />
        </mxCell>
        <mxCell id="CFfwaV_DFlub3gzBFAvo-21" value="运行单测" style="rounded=0;whiteSpace=wrap;html=1;" vertex="1" parent="CFfwaV_DFlub3gzBFAvo-16">
          <mxGeometry x="20" y="90" width="70" height="40" as="geometry" />
        </mxCell>
        <mxCell id="CFfwaV_DFlub3gzBFAvo-25" value="结束" style="ellipse;whiteSpace=wrap;html=1;" vertex="1" parent="CFfwaV_DFlub3gzBFAvo-16">
          <mxGeometry x="180" y="490" width="60" height="30" as="geometry" />
        </mxCell>
        <mxCell id="CFfwaV_DFlub3gzBFAvo-32" value="否" style="edgeStyle=orthogonalEdgeStyle;rounded=0;orthogonalLoop=1;jettySize=auto;html=1;exitX=1;exitY=0.5;exitDx=0;exitDy=0;entryX=0.5;entryY=0;entryDx=0;entryDy=0;" edge="1" parent="CFfwaV_DFlub3gzBFAvo-16" source="CFfwaV_DFlub3gzBFAvo-26" target="CFfwaV_DFlub3gzBFAvo-25">
          <mxGeometry x="-0.8851" relative="1" as="geometry">
            <mxPoint as="offset" />
          </mxGeometry>
        </mxCell>
        <mxCell id="CFfwaV_DFlub3gzBFAvo-26" value="通过？" style="rhombus;whiteSpace=wrap;html=1;rounded=0;" vertex="1" parent="CFfwaV_DFlub3gzBFAvo-16">
          <mxGeometry x="15" y="150" width="80" height="40" as="geometry" />
        </mxCell>
        <mxCell id="CFfwaV_DFlub3gzBFAvo-30" value="snapshot测试" style="whiteSpace=wrap;html=1;rounded=0;" vertex="1" parent="CFfwaV_DFlub3gzBFAvo-16">
          <mxGeometry x="12.5" y="230" width="85" height="30" as="geometry" />
        </mxCell>
        <mxCell id="CFfwaV_DFlub3gzBFAvo-31" value="是" style="edgeStyle=orthogonalEdgeStyle;rounded=0;orthogonalLoop=1;jettySize=auto;html=1;" edge="1" parent="CFfwaV_DFlub3gzBFAvo-16" source="CFfwaV_DFlub3gzBFAvo-26" target="CFfwaV_DFlub3gzBFAvo-30">
          <mxGeometry x="-0.5" relative="1" as="geometry">
            <mxPoint as="offset" />
          </mxGeometry>
        </mxCell>
        <mxCell id="CFfwaV_DFlub3gzBFAvo-33" value="通过？" style="rhombus;whiteSpace=wrap;html=1;rounded=0;" vertex="1" parent="CFfwaV_DFlub3gzBFAvo-16">
          <mxGeometry x="15" y="290" width="80" height="40" as="geometry" />
        </mxCell>
        <mxCell id="CFfwaV_DFlub3gzBFAvo-34" value="" style="edgeStyle=orthogonalEdgeStyle;rounded=0;orthogonalLoop=1;jettySize=auto;html=1;" edge="1" parent="CFfwaV_DFlub3gzBFAvo-16" source="CFfwaV_DFlub3gzBFAvo-30" target="CFfwaV_DFlub3gzBFAvo-33">
          <mxGeometry relative="1" as="geometry" />
        </mxCell>
        <mxCell id="CFfwaV_DFlub3gzBFAvo-38" style="edgeStyle=orthogonalEdgeStyle;rounded=0;orthogonalLoop=1;jettySize=auto;html=1;exitX=0.5;exitY=1;exitDx=0;exitDy=0;entryX=0.5;entryY=0;entryDx=0;entryDy=0;" edge="1" parent="CFfwaV_DFlub3gzBFAvo-16" source="CFfwaV_DFlub3gzBFAvo-35" target="CFfwaV_DFlub3gzBFAvo-37">
          <mxGeometry relative="1" as="geometry" />
        </mxCell>
        <mxCell id="CFfwaV_DFlub3gzBFAvo-35" value="视觉回归测试" style="whiteSpace=wrap;html=1;rounded=0;" vertex="1" parent="CFfwaV_DFlub3gzBFAvo-16">
          <mxGeometry x="7.5" y="360" width="95" height="30" as="geometry" />
        </mxCell>
        <mxCell id="CFfwaV_DFlub3gzBFAvo-36" value="是" style="edgeStyle=orthogonalEdgeStyle;rounded=0;orthogonalLoop=1;jettySize=auto;html=1;" edge="1" parent="CFfwaV_DFlub3gzBFAvo-16" source="CFfwaV_DFlub3gzBFAvo-33" target="CFfwaV_DFlub3gzBFAvo-35">
          <mxGeometry relative="1" as="geometry" />
        </mxCell>
        <mxCell id="CFfwaV_DFlub3gzBFAvo-37" value="通过？" style="rhombus;whiteSpace=wrap;html=1;rounded=0;" vertex="1" parent="CFfwaV_DFlub3gzBFAvo-16">
          <mxGeometry x="15" y="420" width="80" height="40" as="geometry" />
        </mxCell>
      </root>
    </mxGraphModel>
  </diagram>
</mxfile>
